<svg width="25" height="24" viewBox="0 0 25 24" fill="none" xmlns="http://www.w3.org/2000/svg">
<path d="M22.5 12C22.5 6.47719 18.0228 2 12.5 2C6.97719 2 2.5 6.47719 2.5 12C2.5 16.9913 6.15687 21.1284 10.9375 21.8785V14.8906H8.39844V12H10.9375V9.79688C10.9375 7.29063 12.4305 5.90625 14.7147 5.90625C15.8088 5.90625 16.9531 6.10156 16.9531 6.10156V8.5625H15.6922C14.4499 8.5625 14.0625 9.33336 14.0625 10.1242V12H16.8359L16.3926 14.8906H14.0625V21.8785C18.8431 21.1284 22.5 16.9913 22.5 12Z" fill="#1877F2"/>
<path d="M16.3926 14.8906L16.8359 12H14.0625V10.1242C14.0625 9.33328 14.4499 8.5625 15.6922 8.5625H16.9531V6.10156C16.9531 6.10156 15.8088 5.90625 14.7146 5.90625C12.4305 5.90625 10.9375 7.29063 10.9375 9.79688V12H8.39844V14.8906H10.9375V21.8785C11.4544 21.9595 11.9768 22.0001 12.5 22C13.0232 22.0002 13.5456 21.9595 14.0625 21.8785V14.8906H16.3926Z" fill="white"/>
</svg>
