<svg width="21" height="20" viewBox="0 0 21 20" fill="none" xmlns="http://www.w3.org/2000/svg">
<path fill-rule="evenodd" clip-rule="evenodd" d="M10.4997 3.86667C12.3775 3.86667 13.6442 4.67778 14.3664 5.35556L17.1886 2.6C15.4553 0.988889 13.1997 0 10.4997 0C6.58863 0 3.21085 2.24444 1.56641 5.51111L4.79974 8.02222C5.61085 5.61111 7.8553 3.86667 10.4997 3.86667Z" fill="#EA4335"/>
<path fill-rule="evenodd" clip-rule="evenodd" d="M20.1 10.2224C20.1 9.4002 20.0333 8.8002 19.8889 8.17798H10.5V11.8891H16.0111C15.9 12.8113 15.3 14.2002 13.9667 15.1335L17.1222 17.578C19.0111 15.8335 20.1 13.2669 20.1 10.2224Z" fill="#4285F4"/>
<path fill-rule="evenodd" clip-rule="evenodd" d="M4.81111 11.9778C4.6 11.3556 4.47778 10.6889 4.47778 10.0001C4.47778 9.31117 4.6 8.6445 4.8 8.02228L1.56667 5.51117C0.888889 6.86672 0.5 8.38895 0.5 10.0001C0.5 11.6112 0.888889 13.1334 1.56667 14.4889L4.81111 11.9778Z" fill="#FBBC05"/>
<path fill-rule="evenodd" clip-rule="evenodd" d="M10.5003 20.0001C13.2003 20.0001 15.467 19.1112 17.1226 17.5779L13.967 15.1335C13.1226 15.7224 11.9892 16.1335 10.5003 16.1335C7.8559 16.1335 5.61146 14.389 4.81146 11.9779L1.57812 14.489C3.22257 17.7557 6.58924 20.0001 10.5003 20.0001Z" fill="#34A853"/>
</svg>
